<svg width="136" height="55" viewBox="0 0 136 55" fill="none" xmlns="http://www.w3.org/2000/svg">
<path d="M1.28 35V14.392H7.872L12.544 23.896L17.152 14.392H23.744V35H16.864V26.232L14.304 31.48H10.72L8.16 26.232V35H1.28ZM34.8873 35.32C33.1166 35.32 31.5273 35.032 30.1193 34.456C28.7326 33.8587 27.6446 32.9733 26.8553 31.8C26.0659 30.6267 25.6713 29.1867 25.6713 27.48C25.6713 25.0693 26.3646 23.1387 27.7513 21.688C29.1593 20.2373 31.2606 19.512 34.0553 19.512C36.5939 19.512 38.5993 20.152 40.0713 21.432C41.5433 22.6907 42.2793 24.4613 42.2793 26.744V29.368H31.9753C32.5299 30.5413 34.0873 31.128 36.6473 31.128C37.5859 31.128 38.4926 31.0533 39.3673 30.904C40.2419 30.7333 40.9459 30.5413 41.4792 30.328V34.232C39.9646 34.9573 37.7673 35.32 34.8873 35.32ZM31.9753 25.784H36.3913V25.368C36.3913 24.92 36.2313 24.536 35.9113 24.216C35.6126 23.896 35.0686 23.736 34.2793 23.736C33.4259 23.736 32.8286 23.9173 32.4873 24.28C32.1459 24.6427 31.9753 25.144 31.9753 25.784ZM52.7623 35.32C50.9063 35.32 49.2849 35.032 47.8983 34.456C46.5329 33.88 45.4663 33.016 44.6983 31.864C43.9303 30.6907 43.5463 29.208 43.5463 27.416C43.5463 25.624 43.9303 24.1413 44.6983 22.968C45.4663 21.7947 46.5436 20.9307 47.9303 20.376C49.3169 19.8 50.9169 19.512 52.7303 19.512C53.9036 19.512 54.9596 19.5973 55.8983 19.768C56.8583 19.9173 57.7649 20.1947 58.6183 20.6V25.4C57.3169 24.7813 55.8663 24.472 54.2663 24.472C53.0289 24.472 52.1009 24.696 51.4823 25.144C50.8636 25.5707 50.5543 26.328 50.5543 27.416C50.5543 28.4613 50.8636 29.2187 51.4823 29.688C52.1009 30.136 53.0396 30.36 54.2983 30.36C55.0663 30.36 55.8236 30.264 56.5703 30.072C57.3169 29.8587 58.0209 29.5813 58.6823 29.24V34.264C57.8289 34.648 56.9116 34.9147 55.9303 35.064C54.9703 35.2347 53.9143 35.32 52.7623 35.32ZM60.5925 35V13.432H67.4725V20.6C67.9632 20.3013 68.5818 20.0453 69.3285 19.832C70.0752 19.6187 70.8752 19.512 71.7285 19.512C73.8405 19.512 75.3872 20.0133 76.3685 21.016C77.3712 21.9973 77.8725 23.512 77.8725 25.56V35H70.9605V26.104C70.9605 25.5493 70.8432 25.1653 70.6085 24.952C70.3952 24.7173 70.0112 24.6 69.4565 24.6C69.1152 24.6 68.7525 24.6853 68.3685 24.856C68.0058 25.0267 67.7072 25.2293 67.4725 25.464V35H60.5925Z" fill="black"/>
<path d="M91.256 35.32C87.48 35.32 84.6 34.424 82.616 32.632C80.632 30.84 79.64 28.2267 79.64 24.792C79.64 21.3147 80.6747 18.6587 82.744 16.824C84.8133 14.9893 87.8107 14.072 91.736 14.072C93.0587 14.072 94.232 14.1467 95.256 14.296C96.3013 14.4453 97.304 14.68 98.264 15V20.856C97.2827 20.4933 96.2907 20.248 95.288 20.12C94.2853 19.9707 93.2613 19.896 92.216 19.896C90.4667 19.896 89.1013 20.2693 88.12 21.016C87.1387 21.7627 86.648 23.0213 86.648 24.792C86.648 26.4987 87.032 27.7147 87.8 28.44C88.5893 29.144 89.7307 29.496 91.224 29.496C92.1413 29.496 92.952 29.3893 93.656 29.176V27.064H89.912V22.872H99.384V33.368C98.552 33.9013 97.464 34.36 96.12 34.744C94.776 35.128 93.1547 35.32 91.256 35.32ZM101.963 18.2V13.368H109.355V18.2H101.963ZM102.475 35V24.824H100.331L100.907 19.832H109.355V35H102.475ZM111.905 35V19.832H118.593L118.753 20.888C119.329 20.5467 120.086 20.2373 121.025 19.96C121.964 19.6827 122.924 19.5333 123.905 19.512V24.6C123.372 24.6213 122.774 24.6747 122.113 24.76C121.473 24.8453 120.854 24.952 120.257 25.08C119.681 25.1867 119.19 25.3253 118.785 25.496V35H111.905ZM126.619 18.2V13.368H134.011V18.2H126.619ZM127.131 35V24.824H124.987L125.563 19.832H134.011V35H127.131Z" fill="#B54545"/>
<path d="M2.04 50L0.24 42.272H2.76L3.492 45.8L4.14 43.508V42.272H6.24L7.26 45.812L8.052 42.272H10.572L8.784 50H6.492L5.448 46.484L4.32 50H2.04ZM13.6101 50.12C12.9461 50.12 12.3501 50.012 11.8221 49.796C11.3021 49.572 10.8941 49.24 10.5981 48.8C10.3021 48.36 10.1541 47.82 10.1541 47.18C10.1541 46.276 10.4141 45.552 10.9341 45.008C11.4621 44.464 12.2501 44.192 13.2981 44.192C14.2501 44.192 15.0021 44.432 15.5541 44.912C16.1061 45.384 16.3821 46.048 16.3821 46.904V47.888H12.5181C12.7261 48.328 13.3101 48.548 14.2701 48.548C14.6221 48.548 14.9621 48.52 15.2901 48.464C15.6181 48.4 15.8821 48.328 16.0821 48.248V49.712C15.5141 49.984 14.6901 50.12 13.6101 50.12ZM12.5181 46.544H14.1741V46.388C14.1741 46.22 14.1141 46.076 13.9941 45.956C13.8821 45.836 13.6781 45.776 13.3821 45.776C13.0621 45.776 12.8381 45.844 12.7101 45.98C12.5821 46.116 12.5181 46.304 12.5181 46.544ZM23.7821 50.12C22.3181 50.12 21.2061 49.78 20.4461 49.1C19.6941 48.42 19.3181 47.44 19.3181 46.16C19.3181 44.848 19.6901 43.852 20.4341 43.172C21.1781 42.492 22.2861 42.152 23.7581 42.152C24.2541 42.152 24.6901 42.188 25.0661 42.26C25.4421 42.332 25.8061 42.436 26.1581 42.572V44.816C25.7901 44.656 25.4261 44.536 25.0661 44.456C24.7141 44.376 24.3381 44.336 23.9381 44.336C23.2901 44.336 22.7941 44.476 22.4501 44.756C22.1141 45.028 21.9461 45.496 21.9461 46.16C21.9461 46.808 22.1221 47.268 22.4741 47.54C22.8341 47.804 23.3301 47.936 23.9621 47.936C24.3541 47.936 24.7301 47.9 25.0901 47.828C25.4501 47.748 25.8141 47.628 26.1821 47.468V49.724C25.8301 49.852 25.4621 49.948 25.0781 50.012C24.7021 50.084 24.2701 50.12 23.7821 50.12ZM28.6698 50.12C28.3098 50.12 27.9778 50.056 27.6738 49.928C27.3698 49.8 27.1258 49.6 26.9418 49.328C26.7578 49.048 26.6658 48.692 26.6658 48.26C26.6658 47.644 26.8658 47.172 27.2658 46.844C27.6658 46.508 28.2778 46.34 29.1018 46.34H30.4818V46.256C30.4818 46.096 30.3898 45.976 30.2058 45.896C30.0298 45.808 29.7418 45.764 29.3418 45.764C29.0378 45.764 28.7098 45.792 28.3578 45.848C28.0138 45.896 27.6858 45.968 27.3738 46.064V44.612C27.6778 44.484 28.0578 44.384 28.5138 44.312C28.9698 44.232 29.4178 44.192 29.8578 44.192C30.7858 44.192 31.5298 44.384 32.0898 44.768C32.6498 45.144 32.9298 45.74 32.9298 46.556V50H30.6738L30.5658 49.568C30.3658 49.736 30.1098 49.872 29.7978 49.976C29.4938 50.072 29.1178 50.12 28.6698 50.12ZM29.6058 48.668C29.8058 48.668 29.9738 48.636 30.1098 48.572C30.2538 48.5 30.3778 48.412 30.4818 48.308V47.696H29.6658C29.2418 47.696 29.0298 47.86 29.0298 48.188C29.0298 48.508 29.2218 48.668 29.6058 48.668ZM33.855 50V44.312H36.363L36.423 44.708C36.639 44.58 36.923 44.464 37.275 44.36C37.627 44.256 37.987 44.2 38.355 44.192V46.1C38.155 46.108 37.931 46.128 37.683 46.16C37.443 46.192 37.211 46.232 36.987 46.28C36.771 46.32 36.587 46.372 36.435 46.436V50H33.855ZM41.9343 50.12C41.2703 50.12 40.6743 50.012 40.1463 49.796C39.6263 49.572 39.2183 49.24 38.9223 48.8C38.6263 48.36 38.4783 47.82 38.4783 47.18C38.4783 46.276 38.7383 45.552 39.2583 45.008C39.7863 44.464 40.5743 44.192 41.6223 44.192C42.5743 44.192 43.3263 44.432 43.8783 44.912C44.4303 45.384 44.7063 46.048 44.7063 46.904V47.888H40.8423C41.0503 48.328 41.6343 48.548 42.5943 48.548C42.9463 48.548 43.2863 48.52 43.6143 48.464C43.9423 48.4 44.2063 48.328 44.4063 48.248V49.712C43.8383 49.984 43.0143 50.12 41.9343 50.12ZM40.8423 46.544H42.4983V46.388C42.4983 46.22 42.4383 46.076 42.3183 45.956C42.2063 45.836 42.0023 45.776 41.7063 45.776C41.3863 45.776 41.1623 45.844 41.0343 45.98C40.9063 46.116 40.8423 46.304 40.8423 46.544Z" fill="#B54545"/>
</svg>
